<?xml version="1.0" encoding="UTF-8"?>
<!DOCTYPE svg PUBLIC "-//W3C//DTD SVG 1.1//EN" "http://www.w3.org/Graphics/SVG/1.1/DTD/svg11.dtd">
<!-- Creator: CorelDRAW 2021 (64-Bit) -->
<svg xmlns="http://www.w3.org/2000/svg" xml:space="preserve" width="125.485mm" height="70.4071mm" version="1.1" style="shape-rendering:geometricPrecision; text-rendering:geometricPrecision; image-rendering:optimizeQuality; fill-rule:evenodd; clip-rule:evenodd"
viewBox="0 0 16523.17 9270.82"
 xmlns:xlink="http://www.w3.org/1999/xlink"
 xmlns:xodm="http://www.corel.com/coreldraw/odm/2003">
 <defs>
  <style type="text/css">
   <![CDATA[
    .fil0 {fill:#9C5C40}
    .fil2 {fill:#C39C82}
    .fil1 {fill:#F7F7F7}
   ]]>
  </style>
 </defs>
 <g id="Capa_x0020_1">
  <metadata id="CorelCorpID_0Corel-Layer"/>
  <g id="_3094143973472">
   <path class="fil0" d="M1542.46 4619.69l-1540.91 0.99c24.98,131.75 271.95,96.75 315.14,337.85l1.67 3894.96c-36.43,225.48 -261.86,220.74 -318.36,320.75l25.04 13.71c97.87,35.32 -90.57,-14.91 28.55,8.93l1660.84 -3.62c38.36,-9.03 22.91,-4.36 43.94,-19.01 -37.63,-53.29 -161.54,-98.7 -219.96,-151.56 -72.51,-65.64 -97.56,-132.25 -97.52,-263.34l0.7 -1455.62c0,-184.25 -36.92,-552.7 28.76,-678.35 66.59,33.23 166.19,242.2 208.34,316.99l1132.07 1951.67c97.32,211.25 -134.62,182.16 -176.39,301.85 21.56,1.26 1649.34,17.86 1728.36,-2.25 45.36,-11.56 12,3.44 39.34,-19.4 -53.13,-96.98 -207.47,-49.3 -366.29,-328.57l-1505.13 -2599.41c-61.53,-106.56 -207.3,-329.87 -243.49,-436.87 111.96,-105.47 223.49,-207.16 334.51,-318.77 71.64,-72.01 233.81,-265.86 399.62,-220.04 226.98,62.7 87.91,289.53 109.54,491.94 20.34,190.37 133.11,313.85 277.29,368.35 692.16,261.6 1410.94,-603.42 908.82,-1220.15 -171.77,-210.97 -551.28,-404.83 -922.41,-223.1 -338.67,165.88 -1686.97,1693.43 -1949.45,1881.68 -26.87,-335.47 -3.48,-772.27 -3.48,-1118.8 0,-132.21 -19.66,-444.34 21.19,-547.17 79.03,-198.97 247.98,-147.24 294.92,-266.85l-110.49 -17.67c-33.64,-0.59 -70.59,0.79 -104.75,0.9z"/>
   <path class="fil0" d="M13989.05 9186.1c-19.47,-78.83 -107.31,-78.72 -182.96,-134.49 -214.6,-158.23 -139.73,-411.11 -139.73,-812.63 0,-192.97 -27.68,-1773.6 22.48,-1882.84 214.88,-468.08 917.09,-679.93 1152.4,-210.27 126.33,252.13 83.07,868.79 83.07,1192.48 0,798.12 -182.88,1688.98 695.6,1839.72 401.87,68.93 897.99,-145.49 903.27,-331.58 -114.27,12.11 -122.65,159.5 -312.57,105.06 -128.8,-36.92 -163.59,-123.47 -166.77,-278.94 -13.36,-654.09 75.62,-2170.88 -106.1,-2584.22 -314.1,-714.51 -1235.62,-650.25 -1833.84,-252.24 -260.65,173.43 -281.56,260.03 -437.09,449.43l-2.07 -695.81 -1108.29 292.09c-88.12,24.19 -287.39,52.31 -329.28,122.87 22.32,81.09 59.32,56.53 134.62,109.42 167.49,117.69 183.07,339.09 182.42,531.4l-0.09 1905.17c0.01,148.98 23.52,308.75 -54.28,416.71 -34.37,47.71 -72.88,78.45 -130.53,112.17 -65.69,38.4 -104.91,31.9 -131.92,94.62l434.35 20.11c272.22,0 1181.95,18.5 1327.31,-8.24z"/>
   <path class="fil0" d="M10389.99 7095.81c7.69,262.31 1.4,533.51 1.4,796.78 0,298.28 37.51,470.62 -87.97,707.38 -276.75,522.23 -747.03,498.57 -977.42,221.28 -376.44,-453.09 -324.12,-1832.12 1064,-1725.44zm1593.1 1769.15c-110.44,10.23 -122.8,166.84 -326.5,102.35 -129.16,-40.92 -156.19,-144.55 -155.64,-294.89l0.32 -1836.33c0.14,-302.94 -19.09,-535.76 -174.6,-726.21 -604.68,-740.58 -2299.06,-690.76 -2821.68,-347.61 -596.41,391.61 -432.02,929.15 -94.57,1133.55 473.2,286.62 1112.54,-110.03 987.28,-623.36 -93.11,-381.54 -427.8,-378.33 -204.45,-549.61 177.43,-136.06 502.34,-168.44 749.03,-98.44 549.25,155.88 457.61,755.48 448.29,1364.75 -628.88,48.11 -1105.7,61.33 -1635.23,304.35 -448.51,205.83 -844.59,506.95 -700.3,1187.45 165.19,779.04 1316.64,966.42 1932.8,600.03 240.77,-143.2 282.68,-253.59 415.89,-526.05 120.43,350.23 307.68,608.27 677.19,693.11 420.86,96.61 907.78,-130.19 902.17,-383.09z"/>
   <path class="fil0" d="M5964.68 5602.01c119.2,-13.52 243.45,0.03 358.56,39.12 450.14,152.82 -120.07,593.34 125.53,965.04 245.3,371.27 1047.69,336.35 1087.67,-151.33 20.12,-245.61 -158.26,-497.68 -271.89,-595.41 -505.84,-435.03 -1605.89,-392.9 -2111.24,-157.55 -366.5,170.66 -688.53,599.67 -452.09,1127 166,370.2 528.48,619.34 922.67,810.05 372.05,179.99 887.95,373.13 1091.59,640.68 311.02,408.69 129.71,895.18 -548.58,899.19 -135.26,0.79 -262.41,-14.19 -373.27,-64.6 -125.09,-56.86 -163.93,-110.82 -146.5,-286.01 24.81,-249.18 179.59,-476.57 19.66,-712.48 -224.72,-331.41 -1052.75,-297.85 -1079.98,209.19 -43.08,801.87 1581.31,1101.02 2425.64,794.25 499.94,-181.63 691.29,-665.61 558.05,-1107.28 -243.47,-807.1 -1412.17,-999.96 -1962.4,-1500.13 -281.18,-255.58 -332.98,-623.86 7.03,-816.13 112.75,-63.76 206.14,-77.32 349.56,-93.61z"/>
   <path class="fil1" d="M10389.99 7095.81c-1388.11,-106.68 -1440.44,1272.34 -1064,1725.44 230.39,277.29 700.67,300.96 977.42,-221.28 125.49,-236.76 87.97,-409.1 87.97,-707.38 0,-263.27 6.29,-534.47 -1.4,-796.78z"/>
   <path class="fil2" d="M10193.69 4075.54c-91.53,24.73 -312.42,-23.9 -421.53,-35 27.89,-39.4 170.16,-193.38 222.2,-194.59 77.33,-1.82 196.41,128.84 199.33,229.59zm-902.98 34.47c51.97,-51.02 83.71,-94.78 134.45,-147.15 43.33,-44.72 125.96,-77.56 178.56,-115.19 114.99,-82.23 222.19,-188.95 423.31,-156.6 -11.39,64.18 -84.79,109.57 -130.9,154.27 -249.4,241.81 -221.29,246.39 -605.43,264.67zm-484.02 151.4c43.79,-56.61 75.75,-57.63 128.28,-95.25 47.14,-33.77 79.85,-71.25 113.91,-111.36 258.98,-305.08 392.82,-630.29 675.24,-601.2 2.04,51.62 -32.89,85.65 -60.75,124.43 -167.52,233.35 -285.25,389.43 -506.49,584.5 -107.18,94.49 -172.03,88.29 -350.19,98.87zm-2919.87 -451.02c113.57,-12.83 872.41,-395.39 1290.4,-471.91 -13.29,42.54 -34.87,79.08 -51.66,111.28 -59.12,113.23 -34.78,92.58 -23.46,113.42 34.74,-18.42 30.94,-16.97 68.71,-88.04 53.2,-100.11 104.5,-228.85 172.8,-311.98 101.77,-123.87 269.33,-134.02 461.03,-179.99 418.07,-100.22 749.78,-58.21 1185.54,-23.25 -41.17,104.77 -190.1,204.54 -347.15,221.2 -90.45,9.57 -199.67,-15.88 -284.34,11.05 -77.67,24.69 -82.78,92.96 -132.78,158.29 -134.74,-24.49 -143.3,-54 -211,-79.74 -51.52,-19.59 -17.67,-26.51 -63.32,-2.51 56.74,119.06 391.99,156.6 531.23,213.73 81.35,33.38 162.24,83.64 242.94,120.52 79.85,36.51 221.32,51.17 278.03,98.74 -151.03,163.08 -475.66,263.67 -750.16,95.04 -103.02,-63.31 -211.44,-131.94 -349.83,-168.99 -72.18,-19.3 -142.91,-36.76 -216.01,-44.72 -118.06,-12.83 -192.48,-26.53 -223.04,32.08 66.73,32.18 369.36,18.26 552.76,105.98 243.29,116.36 493.33,385.03 961.74,73.57 147.33,-97.97 52.84,-323.67 302.57,-373.56 24.75,283.77 -80.89,383.99 -284.98,617.25 -81.05,92.63 -149.08,126.83 -259.17,189.86 -110.74,63.37 -169.77,129.57 -318.36,135.23 -248.36,9.49 -583.65,-46.43 -831.31,-73.33 -204.61,-22.21 -324.25,-11.8 -444.41,-231.47 -33.56,-61.36 -45.85,-119.46 -93.42,-145.32 -41.28,73.58 76.12,190.05 100.15,254.32 -132.71,62.72 -288.13,102.67 -429.34,157.31 -76.09,29.42 -135.7,56.46 -202.98,91.62 -80.36,42.02 -157.26,72.51 -173.24,129.12 39.61,-1.92 310.55,-147 398.47,-180.97 117.55,-45.44 344,-133.54 450.09,-160.31 130.02,150.31 449.26,143.33 723.76,170.07 138.42,13.48 273.38,34.6 414.58,39.07 68.18,2.15 147.98,5.06 212.09,-15.63 65.63,-21.19 72.76,-53.45 153.28,-69.85 109.8,-22.36 308.36,-16.99 395.5,-55.58 65.88,-29.19 72.79,-69.58 131.17,-94.49 48.82,-20.84 141.76,-23.65 199.51,-26.76 153.73,-8.27 265.52,-67.26 398.61,-57.21 113.33,8.52 299.32,82.35 394.85,23.96 25.72,-31.31 11.27,40.24 23.21,-54.26 13.38,-105.76 -126.8,-228.07 -220.25,-268.58 38.46,-38.03 63.56,-50.96 79.82,-110.78 -176.51,-167.79 -427.48,70.83 -530.85,122.15 77.67,-152.02 263.52,-304.87 196.22,-377.7 -120.73,-130.63 -427.34,154.6 -427.38,154.64l-10.88 -212.38c-160.38,-17.39 -274.2,126.95 -301.9,262.84 -286.54,-20.3 -404.02,-186.67 -744.51,-265.57 121.39,-258.6 192.94,-64.02 487.54,-164.21 106.93,-36.36 456,-280.03 171.72,-300.55 -203.28,-14.67 -420.57,-27.38 -624.02,-35.51 -227.42,-9.13 -387.94,38.66 -592.3,85.54 -225.23,51.67 -330.15,53.41 -443.93,215.12 -125.12,177.76 -48.6,92.28 -448.39,226.82 -176.51,59.42 -333.94,119.05 -493.34,181.68 -95.31,37.46 -415.26,153.2 -450.59,233.64z"/>
   <path class="fil2" d="M9528.22 2803.92c5.46,-116.49 79.03,-126.64 154.43,-211.18 -51.66,-52.29 -58.79,-8.45 -85.06,-71.45 -24.75,-38.76 17.59,1.25 11.26,-147.26 -72.09,-16.75 -106.25,-2.9 -160.33,-15.31 -0.54,-63.09 56.41,-76.31 8.9,-156.64 -31.44,-53.14 -89.39,-43.08 -149.63,-53.85 -40.12,-7.2 -18.86,13.1 -58.9,-24.97 -90.92,-86.47 70.33,-15.68 -8.22,-123.77 -33.55,-46.19 -16.74,-17.87 -77.31,-33.29 -107.46,-27.38 -158.9,-157.61 -282.02,-285.96 -132.65,-138.31 -274.99,29.39 -133.86,172.06 46.07,-22.94 19.58,-40.73 69.26,-73.34 99.51,35.09 101.06,100.44 171.51,192.52 90.08,117.66 -8.32,104.92 71.06,257.46 113.54,28.11 135.72,-12.86 196.77,62.94 108.42,134.62 4.62,32.08 46.78,177.71 43.65,13.68 88.7,10.8 122.27,38.73 -38.29,14.89 -69.1,75.57 1.34,115.72 69.98,39.9 42.41,-42.25 125.85,32 -100.77,1.25 -514.07,-133.29 -672.01,-161.27 -58.23,-10.31 -339.06,-53.37 -363.84,-70.58 -55.36,-38.48 -9.61,-72 -107.7,-101.14 -227.44,-67.56 -237.57,340.38 64.72,202.5 65.38,-29.82 243.98,52.62 331.11,80.9 212.6,68.98 553.84,120.27 723.6,197.49z"/>
   <path class="fil1" d="M12474.83 1845.38c-113.37,44.61 -234.99,173.51 -200.13,349.04 26.08,131.37 181.22,231.15 343.66,163.82 363.32,-150.62 187.66,-643.23 -143.53,-512.86z"/>
   <path class="fil1" d="M6885.43 462.41c17.71,125.28 125.17,270.01 268.63,266.02 147.74,-4.12 240.78,-162.89 222.98,-315.2 -42.18,-361.16 -546.48,-338.88 -491.61,49.18z"/>
   <path class="fil1" d="M8806.68 4261.41c178.16,-10.59 243.01,-4.38 350.19,-98.87 221.24,-195.08 338.97,-351.15 506.49,-584.5 27.86,-38.78 62.8,-72.82 60.75,-124.43 -282.42,-29.09 -416.26,296.12 -675.24,601.2 -34.06,40.11 -66.77,77.58 -113.91,111.36 -52.52,37.62 -84.48,38.65 -128.28,95.25z"/>
   <path class="fil2" d="M9865.01 3059.97c153.07,56.96 51.67,102.65 90.83,215.77 76.77,33.5 104.92,5.23 151.29,36.91 7.76,5.29 77.49,97.86 80.78,107.34 39.83,114.39 -107.16,244.2 131.29,262.16 -25.8,-108.28 -73.87,-40.25 -64.92,-177.54 121.17,88.59 312.49,436.03 417.38,408.1l7.95 -25.2c0.14,-2.58 1.9,-9.35 1.8,-12.5l-335.2 -439.57c-69.58,-83.4 -26.93,-94.37 -69.81,-209.31 -54.87,-21.05 -110.37,-16.22 -151.94,-51.95 -80.23,-68.96 -12.25,-95.99 -49.23,-165.79 -81.64,-101.34 -110.5,-6.95 -139.6,-86.06l-66.5 -31.67 -53.46 100.43c30.56,44.16 44.4,22.45 49.33,68.87z"/>
   <path class="fil2" d="M9936.74 2903.87c189.3,28.42 416.33,99.52 604.99,147.26 97.62,24.69 370.2,86.27 446.52,125.16 69.76,35.53 53.93,40.09 138.13,26.82 90.3,-178.66 -85.36,-130.52 -210.65,-163.37 -110.25,-28.89 -229.25,-62.53 -340.71,-93.28 -94.23,-26.01 -602.5,-145.38 -665.1,-207.72 -2.55,2.29 -7.4,4.29 -8.98,5.11l-73.95 43.93c-26.19,29.65 -37.17,71.99 -42.14,121.59 28.88,-27.12 4.37,-7.77 27.28,-30.75 2.88,-2.91 6.16,-6.95 9.27,-9.76 48.56,-44.05 123.62,-58.58 115.33,35z"/>
   <path class="fil2" d="M9632.87 840.27c82.95,10.27 54.57,7.49 142.52,-216.22 36.26,-92.28 67.92,-197.08 115.04,-268.87l20.48 397.06c1.25,57.69 -3.95,88.74 31.63,129.84 43.16,-24.15 16.04,-3.16 48.63,-42.31 18.14,-21.79 21.59,-32.04 34.63,-51.99 29.85,-45.76 46.17,-68.55 79.56,-111.08 45.35,-57.73 123.51,-153.55 158.36,-210.31 -1.46,82.3 -31.35,185.32 -50.44,268.18l-42.66 228.81c6,44.61 -4.95,12.02 14.39,44.49 39.2,-24.14 22.58,32.96 64.38,-153.62l103.42 -465.09c-15.66,-241.7 -256.59,270.76 -387.06,367.57 -0.45,-91.75 -5.73,-495.73 -40.53,-548.25 -63.52,-4.48 -39.21,-45.86 -102.34,118.01 -23.91,62.01 -42.53,114.7 -64.99,176.01 -42.14,114.99 -89.6,222.65 -125.01,337.76z"/>
   <path class="fil2" d="M12474.83 1845.38c331.19,-130.37 506.84,362.24 143.53,512.86 -162.43,67.34 -317.57,-32.44 -343.66,-163.82 -34.85,-175.54 86.76,-304.43 200.13,-349.04zm5 -78.85c-404.62,99.77 -362.32,788.03 139.9,663.84 151.73,-37.51 301.26,-201.58 267.55,-407.24 -27.31,-166.58 -202.45,-307.14 -407.45,-256.59z"/>
   <path class="fil2" d="M11741.18 1166.73c2.29,159.37 -22.61,361.63 -42.47,524.34 -38.13,312.36 103.15,61.57 248.56,-124.74 42.4,-54.32 74.07,-97.07 111.94,-147.87 107.05,-143.62 111.83,-116.72 46.56,-142.18 -32.6,-8.64 -53.88,39.87 -78.93,75.21 -33.85,47.81 -55.15,73.71 -89.72,118.57 -58.36,75.83 -115.65,173.98 -176.54,224.85 6.9,-132.45 88.8,-571.06 17.84,-658.2 -63.22,5.15 -15.51,-27.78 -109.79,112.9l-269.21 410.44c-15.6,36.37 -41.65,33.93 6.14,52.66 40.81,15.97 26.23,6.23 60.24,-41.11 78.11,-108.55 198.58,-322.18 275.37,-404.87z"/>
   <path class="fil2" d="M6885.43 462.41c-54.87,-388.06 449.43,-410.34 491.61,-49.18 17.8,152.31 -75.24,311.08 -222.98,315.2 -143.46,3.99 -250.92,-140.75 -268.63,-266.02zm194.11 -374.18c-440.35,91.51 -269.8,745.41 107.6,703.14 172.1,-19.26 276.35,-214.34 246.69,-415.49 -23.19,-157.23 -167.35,-326.53 -354.3,-287.66z"/>
   <path class="fil1" d="M9290.7 4110.01c384.13,-18.28 356.02,-22.86 605.43,-264.67 46.11,-44.7 119.51,-90.09 130.9,-154.27 -201.12,-32.35 -308.32,74.37 -423.31,156.6 -52.6,37.63 -135.23,70.47 -178.56,115.19 -50.75,52.37 -82.48,96.12 -134.45,147.15z"/>
   <path class="fil2" d="M4044.38 1992.87c-67.65,65.63 -185.28,172.95 -234.03,250.1 -93.4,-56.2 -122.58,-119.24 -190.35,-170.76 -47.68,-36.25 -18.38,-38.58 -68.77,-16.38 -32.15,64.7 40.86,85.79 93.61,132.08l268.91 250.3c52.67,54.26 101.07,112.48 133.74,78.45 47.63,-49.56 -62.53,-71.49 -195.38,-234.24 51.48,-71.3 184.96,-187.2 236.36,-236.87 86.71,68.29 205.2,233.56 240.58,198.63 34.26,-33.88 -46.56,-105.06 -72.47,-131.62 -48.03,-49.17 -84.3,-78.14 -129.59,-129.65 -41.62,-47.36 -72.21,-83.88 -114.85,-128.12 -41.19,-42.79 -104.59,-119.18 -134.35,-117.69 -98.89,4.95 139.47,223.65 166.59,255.75z"/>
   <path class="fil2" d="M6321.85 621.71l-313.1 108.17 -87.56 -229.5c-39.56,-75.37 0,-32.22 -48.8,-51.96 -50.43,44.91 28.69,176.88 89.37,322.29 34.33,82.3 94.86,279.86 147.7,326 92.03,-57.71 -47.23,-127.7 -64.15,-321.31l293.59 -99.66c46.27,79.19 55.7,173.03 78.69,227.27 34.06,80.3 17.29,50.05 60.98,59.83 15.99,-35.47 -139.32,-517.72 -167.03,-591.98 -27.57,-73.97 -10.49,-50.4 -58.11,-61.85 -37.65,63.44 49.31,225.65 68.42,312.7z"/>
   <path class="fil2" d="M8597.82 113.75l80.86 300.63 -203.19 -9.8 122.33 -290.83zm-266.01 562.17c70.74,-20.83 91,-142.67 109.25,-208.53l243.57 5.21c67.29,98.12 15.35,231.92 122.67,223.46 -28.48,-118.51 -57.16,-237.13 -90,-359.83 -23.78,-88.97 -40.63,-302.43 -125.7,-336.24 -47.22,0.41 -226.57,491.01 -256.82,589.88 -1.88,6.19 -8.07,26.74 -9.03,38.12l3.07 36.25c0.3,2.37 1.44,7.95 2.99,11.68z"/>
   <path class="fil2" d="M10829.08 964.69c39.21,-65.3 159.13,-175.15 221.28,-220.65 -0.3,57.62 -7.65,111.33 -14.89,168.83l-30.09 129.58c-0.8,-2.48 -3.95,8.01 -7.47,13.98l-168.83 -91.75zm-251.39 193.01l23.7 5.11c64.93,-5.69 110.79,-80.12 172.51,-144.45l223.44 106.02c-1.74,50.35 -5.52,74.01 -13.43,121.75 -15.13,91.17 -28.6,80.19 16.72,130.57 51.06,-41.79 99.55,-502.61 112.37,-616.84 7.43,-66.11 16.53,-158.97 -69.37,-99.19 -20.88,14.52 -94.34,90.74 -123.21,120.8 -91.95,95.73 -347.08,326.07 -342.74,376.23z"/>
   <path class="fil2" d="M5660.11 1178.64c-66.56,78.65 -98.37,155.77 -237.82,155.06 -310.07,-1.61 -409.05,-447.21 -133.62,-553.31 144.38,-55.62 118.18,31.76 158.92,-58.19 -35.29,-25.28 -61.53,-29.72 -111.57,-23.64 -431.59,52.51 -327.82,743.91 120.02,701.67 78.52,-7.4 314.04,-123.66 204.07,-221.6z"/>
   <path class="fil0" d="M9528.22 2803.92l10.78 52.24c102.77,24.21 110.34,-0.32 192.8,68.56 77.9,65.06 18.95,20.07 50.67,90.28 24.94,55.13 7.74,50.06 82.55,44.98 -4.92,-46.42 -18.76,-24.7 -49.33,-68.87l53.46 -100.43 66.5 31.67 1.09 -18.47c8.28,-93.58 -66.77,-79.04 -115.33,-35 -3.11,2.8 -6.39,6.85 -9.27,9.76 -22.91,22.98 1.59,3.62 -27.28,30.75 4.96,-49.6 15.95,-91.94 42.14,-121.59l73.95 -43.93c1.58,-0.82 6.43,-2.82 8.98,-5.11 -28.06,-22.32 -149.78,-78.16 -212.13,-76 18.86,-57.83 22.17,-70.26 3.48,-122.11l-103.68 -19.34c26.27,62.99 33.41,19.16 85.06,71.45 -75.4,84.54 -148.96,94.69 -154.43,211.18z"/>
   <path class="fil2" d="M4303.33 1363.03c26.3,63.6 235.91,311.86 304.27,398.84 29.22,37.15 84.3,101.11 103.81,139.84l204.96 -146.01c47.1,-40.79 51.75,-12.19 19.88,-57.9 -27.66,-21.82 1.2,-19.01 -43.33,0.22 -40.32,17.42 -102.89,88.43 -163.65,113.92 -61.85,-52.66 -92.04,-126.75 -151.65,-186.37 91.65,-101.39 191.2,-109.14 176.94,-181.36 -3.84,-1.38 -10.43,-6.22 -12.13,-1.98 -1.66,4.08 -9.65,-1.41 -11.93,-1.09 -63.91,8.93 -106.99,72.28 -191.76,121.39 -63.32,-51.88 -85.59,-121.55 -151.45,-179.79 80.33,-119.4 211.6,-112.31 194.21,-200.59 -61.16,-17.03 -91.5,32.93 -149.11,74.11 -56.78,40.61 -75.44,47.96 -129.08,106.76z"/>
   <path class="fil1" d="M10193.69 4075.54c-2.92,-100.74 -122,-231.4 -199.33,-229.59 -52.04,1.21 -194.31,155.19 -222.2,194.59 109.11,11.1 330,59.73 421.53,35z"/>
   <path class="fil1" d="M10829.08 964.69l168.83 91.75c3.52,-5.98 6.66,-16.46 7.47,-13.98l30.09 -129.58c7.24,-57.5 14.59,-111.21 14.89,-168.83 -62.15,45.49 -182.07,155.35 -221.28,220.65z"/>
   <polygon class="fil1" points="8475.49,404.58 8678.68,414.38 8597.82,113.75 "/>
   <path class="fil2" d="M3393.7 2762.95c-67.22,66.4 32.89,145.72 88.93,90.09 58.19,-57.78 -22.38,-155.82 -88.93,-90.09z"/>
   <path class="fil2" d="M13044.11 2768.72c-63.31,67.44 35,135.4 87.77,85.85 36.25,-34 29.75,-108.83 -36.78,-110.16 -69.17,-1.38 -43.72,16.55 -51,24.31z"/>
  </g>
 </g>
</svg>
